<svg xmlns="http://www.w3.org/2000/svg" viewBox="0 0 180 180" fill="none" role="img" aria-hidden="true">
  <g stroke-linecap="round" stroke-linejoin="round" stroke-width="5">
    <path stroke="#FFFFFF" d="M93 45h24c7 0 12 5 12 12v13c0 7-5 12-12 12H93c-7 0-12-5-12-12V57c0-7 5-12 12-12z"/>
    <path stroke="#FFFFFF" d="M74 83h49c9 0 17 7 18 16l7 45c1 8-5 15-13 15H68c-8 0-14-7-13-15l8-45c2-9 3-16 11-16z"/>
    <path stroke="#FFFFFF" d="M72 83c-11 6-18 15-21 28l-7 32c-2 8 4 16 13 16h79"/>
    <path stroke="#FFFFFF" d="M76 158c6-26 10-51 13-75"/>
    <path stroke="#FFFFFF" d="M123 158c-1-26-5-51-12-75"/>
    <path stroke="#FFFFFF" d="M58 136c19 9 48 11 82 3"/>
    <path stroke="#FFFFFF" d="M68 107h68"/>
    <path stroke="#2563EB" d="M97 86c-4 20-6 43-5 68"/>
    <path stroke="#2563EB" d="M110 87c6 18 10 39 12 63"/>
    <path stroke="#2563EB" d="M79 127h47"/>
  </g>
</svg>
