<svg xmlns="http://www.w3.org/2000/svg" viewBox="0 0 180 180" fill="none" role="img" aria-hidden="true">
  <g stroke-linecap="round" stroke-linejoin="round" stroke-width="4">
    <path stroke="#FFFFFF" d="M25 121c15-27 35-42 63-42 20 0 40 5 66 16"/>
    <path stroke="#FFFFFF" d="M41 78c20 7 56 10 91 9"/>
    <path stroke="#FFFFFF" d="M91 77l60-35"/>
    <path stroke="#FFFFFF" d="M27 122h58c-8 18-25 27-57 27"/>
    <path stroke="#FFFFFF" d="M38 122c12 10 30 11 45 0"/>
    <path stroke="#FFFFFF" d="M98 148c3-18 16-31 35-37"/>
    <path stroke="#FFFFFF" d="M47 149h37"/>
    <path stroke="#FFFFFF" d="M129 114c13 2 24 8 32 17"/>
    <path stroke="#2563EB" d="M29 126c14-22 33-34 58-36"/>
    <path stroke="#2563EB" d="M44 127c12 8 26 8 38 0"/>
    <path stroke="#2563EB" d="M54 122c7 4 15 4 22 0"/>
  </g>
</svg>
