<svg xmlns="http://www.w3.org/2000/svg" viewBox="0 0 180 180" role="img" aria-label="Подвеска">
  <path fill="#F8FAFC" fill-rule="evenodd" d="M152.31,29.54 L151.38,29.54 L149.54,27.69 L147.69,27.69 L146.77,26.77 L139.38,26.77 L138.46,27.69 L137.54,27.69 L136.62,28.62 L133.85,29.54 L131.08,32.31 L131.08,33.23 L129.23,36.00 L129.23,46.15 L128.31,47.08 L127.38,47.08 L126.46,48.00 L126.46,48.92 L124.62,50.77 L122.77,48.92 L121.85,48.92 L118.15,45.23 L113.54,45.23 L112.62,46.15 L112.62,47.08 L111.69,48.00 L111.69,49.85 L113.54,51.69 L113.54,52.62 L119.08,58.15 L117.23,60.00 L117.23,60.92 L113.54,64.62 L111.69,64.62 L108.00,60.92 L107.08,60.92 L102.46,56.31 L101.54,56.31 L100.62,55.38 L98.77,55.38 L96.00,58.15 L96.00,61.85 L98.77,66.46 L94.15,71.08 L94.15,72.00 L91.38,74.77 L87.69,71.08 L84.92,71.08 L83.08,72.92 L83.08,73.85 L82.15,74.77 L82.15,76.62 L83.08,77.54 L83.08,78.46 L84.00,79.38 L84.92,82.15 L83.08,84.00 L83.08,84.92 L81.23,86.77 L81.23,87.69 L83.08,87.69 L84.92,85.85 L84.92,84.92 L85.85,84.00 L88.62,86.77 L89.54,89.54 L91.38,91.38 L91.38,92.31 L92.31,93.23 L92.31,94.15 L94.15,96.00 L95.08,98.77 L96.92,100.62 L96.92,101.54 L99.69,104.31 L99.69,105.23 L102.46,108.00 L102.46,108.92 L104.31,110.77 L104.31,111.69 L105.23,112.62 L105.23,114.46 L100.62,119.08 L100.62,120.00 L94.15,126.46 L94.15,129.23 L96.00,131.08 L96.00,132.00 L96.92,132.92 L96.92,134.77 L97.85,135.69 L97.85,136.62 L96.92,137.54 L85.85,126.46 L84.92,126.46 L75.69,117.23 L75.69,115.38 L72.92,115.38 L66.46,108.92 L66.46,108.00 L72.00,102.46 L73.85,104.31 L73.85,105.23 L74.77,106.15 L74.77,107.08 L75.69,108.00 L76.62,110.77 L78.46,112.62 L78.46,113.54 L81.23,116.31 L81.23,117.23 L84.00,120.00 L84.00,120.92 L86.77,123.69 L87.69,123.69 L87.69,121.85 L85.85,120.00 L85.85,119.08 L83.08,116.31 L83.08,115.38 L81.23,113.54 L80.31,110.77 L78.46,108.92 L77.54,106.15 L75.69,104.31 L75.69,103.38 L73.85,100.62 L73.85,98.77 L80.31,92.31 L80.31,91.38 L79.38,90.46 L76.62,91.38 L74.77,89.54 L73.85,89.54 L72.92,88.62 L71.08,88.62 L70.15,89.54 L69.23,89.54 L69.23,90.46 L68.31,91.38 L68.31,94.15 L69.23,95.08 L69.23,96.00 L70.15,96.92 L71.08,99.69 L67.38,103.38 L67.38,104.31 L64.62,107.08 L63.69,107.08 L60.92,104.31 L58.15,104.31 L57.23,107.08 L52.62,111.69 L52.62,112.62 L48.00,117.23 L48.00,118.15 L43.38,122.77 L43.38,123.69 L41.54,125.54 L41.54,128.31 L42.46,129.23 L42.46,130.15 L47.08,134.77 L48.00,134.77 L48.92,135.69 L48.92,136.62 L47.08,138.46 L46.15,141.23 L44.31,143.08 L39.69,143.08 L38.77,144.00 L36.92,144.00 L36.00,144.92 L33.23,145.85 L28.62,150.46 L28.62,151.38 L26.77,154.15 L26.77,156.00 L25.85,156.92 L25.85,164.31 L26.77,165.23 L26.77,168.00 L27.69,168.92 L27.69,169.85 L29.54,171.69 L29.54,172.62 L32.31,175.38 L33.23,175.38 L35.08,177.23 L36.00,177.23 L36.92,178.15 L38.77,178.15 L39.69,179.08 L46.15,179.08 L47.08,178.15 L49.85,178.15 L50.77,177.23 L53.54,176.31 L58.15,171.69 L58.15,170.77 L60.00,168.00 L60.00,165.23 L60.92,164.31 L60.92,158.77 L62.77,156.92 L63.69,156.92 L67.38,153.23 L68.31,153.23 L70.15,155.08 L71.08,155.08 L74.77,158.77 L76.62,158.77 L77.54,157.85 L78.46,157.85 L78.46,156.00 L75.69,156.00 L74.77,155.08 L73.85,155.08 L67.38,148.62 L66.46,148.62 L60.00,142.15 L59.08,142.15 L51.69,134.77 L50.77,134.77 L44.31,128.31 L44.31,125.54 L50.77,119.08 L50.77,118.15 L55.38,113.54 L55.38,112.62 L58.15,109.85 L58.15,108.92 L60.00,107.08 L61.85,108.92 L62.77,108.92 L70.15,116.31 L71.08,116.31 L80.31,125.54 L81.23,125.54 L92.31,136.62 L93.23,136.62 L95.08,138.46 L94.15,139.38 L93.23,139.38 L93.23,140.31 L94.15,141.23 L96.92,141.23 L98.77,139.38 L99.69,136.62 L98.77,135.69 L98.77,132.92 L97.85,132.00 L97.85,131.08 L96.92,130.15 L96.00,127.38 L103.38,120.00 L103.38,119.08 L104.31,118.15 L105.23,118.15 L108.00,120.00 L113.54,120.00 L116.31,117.23 L116.31,116.31 L117.23,115.38 L117.23,110.77 L115.38,108.00 L115.38,106.15 L117.23,104.31 L117.23,103.38 L121.85,98.77 L121.85,97.85 L125.54,94.15 L132.00,94.15 L132.92,93.23 L133.85,93.23 L136.62,90.46 L136.62,84.00 L126.46,73.85 L126.46,72.92 L132.00,66.46 L132.92,67.38 L133.85,67.38 L135.69,69.23 L136.62,69.23 L138.46,71.08 L139.38,71.08 L141.23,72.92 L144.00,72.92 L144.92,72.00 L144.92,68.31 L142.15,65.54 L142.15,64.62 L141.23,63.69 L140.31,63.69 L136.62,60.00 L139.38,57.23 L139.38,56.31 L140.31,55.38 L145.85,55.38 L146.77,54.46 L148.62,54.46 L149.54,53.54 L150.46,53.54 L152.31,51.69 L153.23,51.69 L154.15,50.77 L154.15,49.85 L156.92,45.23 L156.92,36.92 L156.00,36.00 L156.00,34.15 Z M50.77,137.54 L55.38,142.15 L56.31,142.15 L64.62,150.46 L65.54,150.46 L66.46,151.38 L63.69,154.15 L60.92,154.15 L60.00,153.23 L59.08,153.23 L58.15,154.15 L58.15,156.92 L59.08,157.85 L59.08,163.38 L58.15,164.31 L58.15,166.15 L57.23,167.08 L57.23,168.92 L51.69,174.46 L50.77,174.46 L48.00,176.31 L38.77,176.31 L37.85,175.38 L35.08,174.46 L30.46,169.85 L30.46,168.92 L28.62,166.15 L28.62,162.46 L27.69,161.54 L28.62,160.62 L28.62,156.00 L29.54,155.08 L30.46,152.31 L35.08,147.69 L36.00,147.69 L37.85,145.85 L40.62,145.85 L41.54,144.92 L47.08,144.92 L47.08,143.08 L48.00,142.15 L48.92,139.38 Z M40.62,153.23 L39.69,154.15 L38.77,154.15 L36.92,156.00 L36.92,156.92 L36.00,157.85 L36.00,164.31 L39.69,168.00 L41.54,168.00 L42.46,168.92 L44.31,168.92 L45.23,168.00 L47.08,168.00 L48.92,166.15 L48.92,165.23 L50.77,162.46 L50.77,158.77 L48.00,154.15 L47.08,154.15 L46.15,153.23 Z M42.46,155.08 L45.23,156.00 L48.00,158.77 L48.00,163.38 L46.15,165.23 L45.23,165.23 L44.31,166.15 L41.54,166.15 L37.85,162.46 L37.85,159.69 L38.77,158.77 L38.77,157.85 L40.62,156.00 L41.54,156.00 Z M106.15,116.31 L107.08,115.38 L108.00,115.38 L108.92,116.31 L108.00,117.23 L107.08,117.23 Z M71.08,92.31 L72.00,91.38 L72.92,91.38 L73.85,92.31 L74.77,92.31 L75.69,93.23 L75.69,94.15 L72.92,96.92 L71.08,95.08 Z M85.85,73.85 L87.69,73.85 L90.46,76.62 L91.38,79.38 L94.15,82.15 L94.15,83.08 L96.92,85.85 L96.92,86.77 L98.77,88.62 L98.77,89.54 L101.54,92.31 L101.54,93.23 L105.23,96.92 L105.23,97.85 L107.08,99.69 L107.08,100.62 L109.85,103.38 L109.85,104.31 L112.62,107.08 L112.62,108.00 L114.46,109.85 L114.46,110.77 L115.38,111.69 L115.38,114.46 L111.69,118.15 L109.85,116.31 L108.92,113.54 L106.15,110.77 L106.15,109.85 L104.31,108.00 L104.31,107.08 L101.54,104.31 L101.54,103.38 L99.69,101.54 L99.69,100.62 L97.85,98.77 L97.85,97.85 L94.15,93.23 L93.23,90.46 L91.38,88.62 L91.38,87.69 L90.46,86.77 L89.54,84.00 L85.85,79.38 L85.85,78.46 L84.92,77.54 L84.92,74.77 Z M99.69,58.15 L100.62,58.15 L103.38,60.92 L104.31,60.92 L109.85,66.46 L110.77,66.46 L115.38,71.08 L116.31,71.08 L120.92,75.69 L121.85,75.69 L124.62,78.46 L125.54,78.46 L126.46,77.54 L134.77,85.85 L134.77,87.69 L133.85,88.62 L133.85,89.54 L132.00,91.38 L131.08,91.38 L130.15,92.31 L124.62,92.31 L119.08,97.85 L119.08,98.77 L115.38,102.46 L115.38,103.38 L113.54,105.23 L112.62,104.31 L112.62,103.38 L109.85,100.62 L109.85,99.69 L106.15,96.00 L106.15,95.08 L100.62,88.62 L100.62,87.69 L98.77,85.85 L98.77,84.92 L96.00,82.15 L96.00,81.23 L94.15,79.38 L94.15,78.46 L93.23,77.54 L93.23,76.62 L95.08,74.77 L95.08,73.85 L98.77,70.15 L98.77,69.23 L101.54,66.46 L101.54,65.54 L99.69,63.69 L99.69,62.77 L97.85,60.00 Z M130.15,48.00 L131.08,48.00 L136.62,53.54 L137.54,53.54 L138.46,54.46 L136.62,56.31 L136.62,57.23 L133.85,59.08 L127.38,52.62 L127.38,50.77 Z M114.46,48.00 L115.38,47.08 L116.31,47.08 L118.15,48.92 L119.08,48.92 L122.77,52.62 L123.69,52.62 L128.31,57.23 L129.23,57.23 L133.85,61.85 L134.77,61.85 L143.08,69.23 L142.15,70.15 L139.38,70.15 L137.54,68.31 L136.62,68.31 L132.00,64.62 L130.15,64.62 L129.23,65.54 L129.23,66.46 L125.54,70.15 L125.54,71.08 L124.62,72.00 L122.77,72.00 L120.00,69.23 L118.15,69.23 L115.38,66.46 L117.23,64.62 L117.23,63.69 L121.85,59.08 L121.85,58.15 L120.00,56.31 L120.00,55.38 L114.46,49.85 Z M141.23,28.62 L145.85,28.62 L146.77,29.54 L149.54,30.46 L153.23,34.15 L153.23,35.08 L155.08,37.85 L155.08,44.31 L154.15,45.23 L154.15,46.15 L152.31,48.00 L152.31,48.92 L147.69,52.62 L144.92,52.62 L144.00,53.54 L141.23,53.54 L140.31,52.62 L137.54,52.62 L132.92,48.00 L132.92,47.08 L131.08,44.31 L131.08,37.85 L132.00,36.92 L132.92,34.15 L136.62,30.46 L137.54,30.46 L138.46,29.54 L140.31,29.54 Z M141.23,35.08 L138.46,37.85 L138.46,38.77 L137.54,39.69 L137.54,41.54 L138.46,42.46 L138.46,43.38 L140.31,45.23 L141.23,45.23 L142.15,46.15 L144.00,46.15 L144.92,45.23 L145.85,45.23 L147.69,43.38 L147.69,37.85 L144.92,35.08 Z M142.15,36.92 L143.08,36.92 L145.85,38.77 L145.85,42.46 L143.08,44.31 L142.15,43.38 L141.23,43.38 L139.38,40.62 L140.31,39.69 L140.31,38.77 Z"/>
</svg>
